<svg viewBox="0 0 48 48" width="48" height="48" fill="none" xmlns="http://www.w3.org/2000/svg">
  <defs>
    <linearGradient id="healthGrad" x1="0%" y1="0%" x2="100%" y2="100%">
      <stop offset="0%" stop-color="#7DDFB0"/><stop offset="100%" stop-color="#2E9E6A"/>
    </linearGradient>
  </defs>
  <path d="M12 38 Q12 20 30 8" stroke="url(#healthGrad)" stroke-width="1.5" fill="none" stroke-linecap="round"/>
  <path d="M12 38 Q28 32 38 12" stroke="url(#healthGrad)" stroke-width="1.5" fill="none" stroke-linecap="round"/>
  <path d="M30 8 Q36 8 38 12" stroke="url(#healthGrad)" stroke-width="1.5" fill="none" stroke-linecap="round"/>
  <path d="M14 34 Q22 24 34 10" stroke="url(#healthGrad)" stroke-width="0.9" opacity="0.45" stroke-linecap="round"/>
  <path d="M16 30 Q20 27 26 22" stroke="url(#healthGrad)" stroke-width="0.6" opacity="0.3" stroke-linecap="round"/>
  <path d="M14 24 Q18 22 22 18" stroke="url(#healthGrad)" stroke-width="0.6" opacity="0.25" stroke-linecap="round"/>
  <path d="M20 34 Q26 28 30 24" stroke="url(#healthGrad)" stroke-width="0.6" opacity="0.25" stroke-linecap="round"/>
  <path d="M4 40 L8 40 L10 37 L12 43 L14 38 L16 40 L20 40" stroke="url(#healthGrad)" stroke-width="0.8" opacity="0.3" stroke-linecap="round" stroke-linejoin="round"/>
  <circle cx="32" cy="14" r="1.2" fill="url(#healthGrad)" opacity="0.3"/>
  <circle cx="20" cy="20" r="0.8" fill="url(#healthGrad)" opacity="0.2"/>
</svg>