<svg viewBox="0 0 48 48" width="48" height="48" fill="none" xmlns="http://www.w3.org/2000/svg">
  <defs>
    <linearGradient id="wisdomGrad" x1="0%" y1="0%" x2="100%" y2="100%">
      <stop offset="0%" stop-color="#D4A5FF"/><stop offset="100%" stop-color="#8B5CF6"/>
    </linearGradient>
  </defs>
  <path d="M24 14 Q18 12 8 14 L8 38 Q18 36 24 38" stroke="url(#wisdomGrad)" stroke-width="1.4" fill="none" stroke-linejoin="round"/>
  <path d="M24 14 Q30 12 40 14 L40 38 Q30 36 24 38" stroke="url(#wisdomGrad)" stroke-width="1.4" fill="none" stroke-linejoin="round"/>
  <line x1="24" y1="14" x2="24" y2="38" stroke="url(#wisdomGrad)" stroke-width="0.8" opacity="0.4" stroke-linecap="round"/>
  <line x1="12" y1="20" x2="20" y2="19" stroke="url(#wisdomGrad)" stroke-width="0.6" opacity="0.2" stroke-linecap="round"/>
  <line x1="12" y1="24" x2="20" y2="23" stroke="url(#wisdomGrad)" stroke-width="0.6" opacity="0.2" stroke-linecap="round"/>
  <line x1="12" y1="28" x2="18" y2="27" stroke="url(#wisdomGrad)" stroke-width="0.6" opacity="0.15" stroke-linecap="round"/>
  <line x1="28" y1="19" x2="36" y2="20" stroke="url(#wisdomGrad)" stroke-width="0.6" opacity="0.2" stroke-linecap="round"/>
  <line x1="28" y1="23" x2="36" y2="24" stroke="url(#wisdomGrad)" stroke-width="0.6" opacity="0.2" stroke-linecap="round"/>
  <line x1="28" y1="27" x2="34" y2="28" stroke="url(#wisdomGrad)" stroke-width="0.6" opacity="0.15" stroke-linecap="round"/>
  <path d="M24 10 L24.8 7.5 L26.5 6.5 L24.8 5.5 L24 3 L23.2 5.5 L21.5 6.5 L23.2 7.5 Z" stroke="url(#wisdomGrad)" stroke-width="0.7" fill="url(#wisdomGrad)" opacity="0.4"/>
  <circle cx="18" cy="8" r="1" fill="url(#wisdomGrad)" opacity="0.25"/>
  <circle cx="30" cy="9" r="0.8" fill="url(#wisdomGrad)" opacity="0.2"/>
  <circle cx="16" cy="4" r="0.6" fill="url(#wisdomGrad)" opacity="0.15"/>
</svg>