<svg viewBox="0 0 48 48" width="48" height="48" fill="none" xmlns="http://www.w3.org/2000/svg">
  <defs>
    <linearGradient id="familyGrad" x1="0%" y1="0%" x2="100%" y2="100%">
      <stop offset="0%" stop-color="#6B6B6B"/><stop offset="100%" stop-color="#4A4A4A"/>
    </linearGradient>
  </defs>
  <circle cx="24" cy="12" r="4" stroke="url(#familyGrad)" stroke-width="1.4" fill="none"/>
  <path d="M16 38 Q16 24 24 22 Q32 24 32 38" stroke="url(#familyGrad)" stroke-width="1.4" fill="none" stroke-linecap="round"/>
  <circle cx="12" cy="18" r="3" stroke="url(#familyGrad)" stroke-width="1.2" fill="none" opacity="0.7"/>
  <path d="M6 40 Q6 30 12 28 Q16 30 17 34" stroke="url(#familyGrad)" stroke-width="1.2" fill="none" stroke-linecap="round" opacity="0.7"/>
  <circle cx="36" cy="18" r="3" stroke="url(#familyGrad)" stroke-width="1.2" fill="none" opacity="0.7"/>
  <path d="M42 40 Q42 30 36 28 Q32 30 31 34" stroke="url(#familyGrad)" stroke-width="1.2" fill="none" stroke-linecap="round" opacity="0.7"/>
  <path d="M16 16 Q20 20 20 22" stroke="url(#familyGrad)" stroke-width="0.6" opacity="0.25" stroke-linecap="round" stroke-dasharray="1.5 1.5"/>
  <path d="M32 16 Q28 20 28 22" stroke="url(#familyGrad)" stroke-width="0.6" opacity="0.25" stroke-linecap="round" stroke-dasharray="1.5 1.5"/>
  <path d="M22.8 6 Q22.8 4.8 24 5.6 Q25.2 4.8 25.2 6 Q25.2 7.2 24 8 Q22.8 7.2 22.8 6 Z" fill="url(#familyGrad)" opacity="0.3"/>
</svg>